<svg fill="none" height="17" viewBox="0 0 16 17" width="16" xmlns="http://www.w3.org/2000/svg">
    <path
        d="M8.00008 1.16669L14.3334 4.83335V12.1667L8.00008 15.8334L1.66675 12.1667V4.83335L8.00008 1.16669ZM8.00008 2.70735L3.00008 5.60202V11.398L8.00008 14.2927L13.0001 11.398V5.60202L8.00008 2.70735ZM8.00008 11.1667C7.29284 11.1667 6.61456 10.8857 6.11446 10.3856C5.61437 9.88554 5.33341 9.20726 5.33341 8.50002C5.33341 7.79278 5.61437 7.1145 6.11446 6.6144C6.61456 6.11431 7.29284 5.83335 8.00008 5.83335C8.70732 5.83335 9.3856 6.11431 9.8857 6.6144C10.3858 7.1145 10.6667 7.79278 10.6667 8.50002C10.6667 9.20726 10.3858 9.88554 9.8857 10.3856C9.3856 10.8857 8.70732 11.1667 8.00008 11.1667ZM8.00008 9.83335C8.3537 9.83335 8.69284 9.69288 8.94289 9.44283C9.19294 9.19278 9.33341 8.85364 9.33341 8.50002C9.33341 8.1464 9.19294 7.80726 8.94289 7.55721C8.69284 7.30716 8.3537 7.16669 8.00008 7.16669C7.64646 7.16669 7.30732 7.30716 7.05727 7.55721C6.80722 7.80726 6.66675 8.1464 6.66675 8.50002C6.66675 8.85364 6.80722 9.19278 7.05727 9.44283C7.30732 9.69288 7.64646 9.83335 8.00008 9.83335Z"
        fill="#174425" />
</svg>
