<svg fill="none" height="60" viewBox="0 0 60 60" width="60" xmlns="http://www.w3.org/2000/svg">
    <defs>
        <clipPath id="clip0_281_501">
            <rect fill="white" height="34" transform="translate(13 13)" width="34" />
        </clipPath>
    </defs>
    <rect fill="white" height="60" opacity="0.1" rx="12" width="60" />
    <g clip-path="url(#clip0_281_501)">
        <path
            d="M13.9946 38.9652H40.027C40.2605 38.9652 40.4862 38.8835 40.6652 38.7346C40.9152 38.5252 46.6189 33.6186 46.9667 23.027H19.0084C18.6619 32.6413 13.4091 37.1603 13.3545 37.2054C13.0345 37.4758 12.9167 37.9175 13.0607 38.3105C13.2037 38.7025 13.5763 38.9652 13.9946 38.9652Z"
            fill="white" />
        <path
            d="M46.0038 17.0501H41.0231V16.054C41.0231 15.4962 40.5848 15.0579 40.027 15.0579C39.4691 15.0579 39.0308 15.4962 39.0308 16.054V17.0501H33.9837V16.054C33.9837 15.4962 33.5454 15.0579 32.9876 15.0579C32.4298 15.0579 31.9915 15.4962 31.9915 16.054V17.0501H27.0108V16.054C27.0108 15.4962 26.5725 15.0579 26.0146 15.0579C25.4568 15.0579 25.0185 15.4962 25.0185 16.054V17.0501H20.0378C19.4799 17.0501 19.0416 17.4884 19.0416 18.0463V21.0347H46.9999V18.0463C46.9999 17.4884 46.5616 17.0501 46.0038 17.0501Z"
            fill="white" />
        <path
            d="M41.9444 40.2619C41.4035 40.7123 40.7245 40.9575 40.027 40.9575H19.0417V43.9459C19.0417 44.4965 19.4873 44.9421 20.0379 44.9421H46.0039C46.5545 44.9421 47 44.4965 47 43.9459V32.7795C45.0795 37.4913 42.3994 39.8811 41.9444 40.2619Z"
            fill="white" opacity="0.25" />
    </g>

</svg>
