<?xml version="1.0" encoding="utf-8"?><!-- Generator: Adobe Illustrator 21.1.0, SVG Export Plug-In . SVG Version: 6.00 Build 0)  -->
<svg xmlns:xlink="http://www.w3.org/1999/xlink" style="enable-background:new 0 0 189.9 25.5;"
    id="Layer_1" version="1.1" viewBox="0 0 189.9 25.5" x="0px" xmlns="http://www.w3.org/2000/svg"
    y="0px" xml:space="preserve">
<style type="text/css">
	.st0{clip-path:url(#SVGID_2_);}
	.st1{clip-path:url(#SVGID_4_);fill:#FFFFFF;}
	.st2{clip-path:url(#SVGID_4_);fill:#CF0A2C;}
	.st3{fill:#FFFFFF;}
</style>
    <g>
	<defs>
		<rect height="24" id="SVGID_1_" width="189.2" x="0.2" y="-0.6" />
	</defs>
        <clipPath id="SVGID_2_">
		<use style="overflow:visible;" xlink:href="#SVGID_1_" />
	</clipPath>
        <path class="st0" d="M80.7,20.9h3.5l-4.7-16h-3.8l-4.9,16h3.3l1-3.7h4.6L80.7,20.9z M79.1,14.5h-3.3l1.7-6.8h0L79.1,14.5z
		 M86.2,20.9h3.4v-6.6c1.3,0,1.7,0,2.3,2.2l1.1,4.4h3.6l-1.5-5.4c-0.5-1.9-1-2.6-2-2.7v0c2.8-0.6,2.9-3.3,2.9-4c0-3-2-3.8-4.5-3.8
		h-5.4V20.9z M89.5,7.7h1c1.8,0,2,1,2,1.7c0,1.2-0.7,2.2-2,2.2h-1.1V7.7z M99,20.9h3.4v-6.6c1.3,0,1.7,0,2.3,2.2l1.1,4.4h3.6
		l-1.5-5.4c-0.5-1.9-1-2.6-2-2.7v0c2.8-0.6,2.9-3.3,2.9-4c0-3-2-3.8-4.5-3.8H99V20.9z M102.3,7.7h1c1.8,0,2,1,2,1.7
		c0,1.2-0.7,2.2-2,2.2h-1.1V7.7z M111.4,12.7c0,4.8,2,8.5,6.2,8.5c4.2,0,6.2-3.7,6.2-8.5s-2-8.1-6.2-8.1
		C113.4,4.6,111.4,7.9,111.4,12.7 M114.9,12.7c0-3.1,0.7-5.3,2.7-5.3c2,0,2.7,2.2,2.7,5.3c0,3.1-0.7,5.7-2.7,5.7
		C115.6,18.4,114.9,15.9,114.9,12.7 M136,20.9h4l2.9-16h-3L138,16.2h0l-1.8-11.3h-4l-1.7,11.3h0l-1.8-11.3h-3.3l2.9,16h4l1.8-12.7h0
		L136,20.9z M156.6,24.1l-2.9-3.8c2-1.3,3.1-4.3,3.1-7.6c0-4.8-2-8.1-6.2-8.1c-4.2,0-6.2,3.3-6.2,8.1s2,8.5,6.2,8.5h0.4l1.9,2.9
		H156.6z M147.9,12.7c0-3.1,0.7-5.3,2.7-5.3c2,0,2.7,2.2,2.7,5.3c0,3.1-0.7,5.7-2.7,5.7C148.6,18.4,147.9,15.9,147.9,12.7 M159.4,15
		c0,4.1,2.1,6.2,5.4,6.2s5.4-2.2,5.4-6.2V4.9h-3.4v10.7c0,1.6-0.5,2.7-1.9,2.7c-1.4,0-1.9-1-1.9-2.7V4.9h-3.4V15z M173.1,20.9h3.4
		v-16h-3.4V20.9z M183,12.1V7.8h0.9c1.4,0,2,0.3,2,1.9c0,1.5-0.8,2.4-1.8,2.4H183z M179.7,20.9h3.4v-6h1.7c3.2,0,4.6-2.4,4.6-5.2
		c0-3.5-1.9-4.8-5-4.8h-4.7V20.9z" />
</g>
    <g>
	<defs>
		<rect height="24.8" id="SVGID_3_" width="61.8" x="-0.1" y="0.6" />
	</defs>
        <clipPath id="SVGID_4_">
		<use style="overflow:visible;" xlink:href="#SVGID_3_" />
	</clipPath>
        <path class="st1" d="M61,21.5c0,1.6-1.3,2.8-2.8,2.8H3.4c-1.6,0-2.8-1.3-2.8-2.8V4.1c0-1.6,1.3-2.8,2.8-2.8h54.7
		c1.5,0,2.8,1.3,2.8,2.8V21.5z" />
        <path class="st2" d="M58.2,24.8H3.4c-1.8,0-3.3-1.5-3.3-3.3V4.1c0-1.8,1.5-3.3,3.3-3.3h54.7c1.8,0,3.3,1.5,3.3,3.3v17.4
		C61.5,23.4,60,24.8,58.2,24.8z M3.4,1.8c-1.3,0-2.3,1-2.3,2.3v17.4c0,1.3,1,2.3,2.3,2.3h54.7c1.3,0,2.3-1,2.3-2.3V4.1
		c0-1.3-1-2.3-2.3-2.3H3.4z" />
        <path class="st2" d="M59.5,21.2c0,1-0.8,1.8-1.8,1.8H3.9c-1,0-1.8-0.8-1.8-1.8V4.5c0-1,0.8-1.8,1.8-1.8h53.8c1,0,1.8,0.8,1.8,1.8
		V21.2z" />
</g>
    <polygon class="st3" points="39.7,12.8 23.6,4.2 26.9,12.8 23.6,21.5 " />
    <polygon class="st3" points="56,12.8 39.9,4.2 43.2,12.8 39.9,21.5 " />
    <polygon class="st3" points="23.4,12.8 7.3,4.2 10.6,12.8 7.3,21.5 " />
</svg>
