<svg fill="none" height="48" viewBox="0 0 50 48" width="50" xmlns="http://www.w3.org/2000/svg">
    <path
        d="M39.3676 14.9965C40.5794 12.7273 43.0063 6.46873 36.7846 0.921753C40.8613 10.1796 30.5478 12.8918 30.5478 12.8918L39.527 22.8042C39.527 22.8042 47.6637 23.3648 50 18.8752C48.5264 17.6365 43.7951 16.168 39.3676 14.9965Z"
        fill="white" />
    <path
        d="M13.2188 0.923218C6.99708 6.47019 9.42399 12.7254 10.6341 14.9979C6.20322 16.1678 1.4736 17.6363 0 18.8783C2.33963 23.3679 10.473 22.8073 10.473 22.8073L19.4522 12.895C19.4522 12.8916 9.14202 10.181 13.2188 0.923218Z"
        fill="white" />
    <path
        d="M13.4671 21.8677C10.4746 27.5388 18.3092 34.4906 19.4572 35.7091C20.6069 36.9292 15.6322 37.5318 15.6641 39.8697C15.6843 41.2728 16.698 42.6961 18.905 43.6192C18.8815 43.4463 18.8379 43.2869 18.8379 43.109C18.8379 42.7632 18.9537 42.4393 19.0477 42.1087C18.5542 41.7814 18.2471 41.34 18.326 40.8902C18.4519 40.1752 19.4723 39.7556 20.5951 39.957C21.723 40.1534 22.537 40.8969 22.4094 41.6102C22.3725 41.825 22.2366 41.9996 22.0637 42.154C22.015 42.2916 21.9294 42.4292 21.9294 42.5669C21.9294 43.6746 23.3392 44.6145 25.0042 44.6145C26.6691 44.6145 28.0806 43.6746 28.0806 42.5669C28.0806 42.4292 27.995 42.2882 27.9463 42.1506C27.7718 41.9996 27.6409 41.825 27.6023 41.6102C27.4764 40.8952 28.2904 40.1534 29.4082 39.957C30.5394 39.7556 31.5582 40.1752 31.684 40.8902C31.7629 41.34 31.4524 41.778 30.9573 42.112C31.053 42.4376 31.1671 42.7666 31.1671 43.109C31.1671 43.2919 31.1252 43.4715 31.0949 43.6477C33.3137 42.7431 34.3342 41.3282 34.3342 39.8664C34.3342 37.4361 29.2437 37.0148 30.5528 35.7057C31.862 34.3983 39.5253 27.5405 36.5328 21.866L30.5478 12.8884H19.4538L13.4671 21.8677ZM16.4748 25.1673C15.6792 24.6134 15.6658 22.7169 15.6658 22.7169C15.6658 22.7169 16.8054 22.8562 17.799 23.5896C18.7959 24.3197 19.145 26.2817 19.4404 27.2468C18.6365 25.9276 17.2703 25.7212 16.4748 25.1673ZM32.2043 23.588C33.1979 22.8545 34.3375 22.7152 34.3375 22.7152C34.3375 22.7152 34.3224 24.6118 33.5302 25.1656C32.733 25.7195 31.3668 25.9259 30.5646 27.2401C30.8566 26.2784 31.2074 24.3181 32.2043 23.588Z"
        fill="white" />
    <path
        d="M28.4599 41.4004C28.6899 41.7595 28.8275 42.154 28.8275 42.5769C28.8275 44.121 27.1173 45.3697 25.0059 45.3697C22.8945 45.3697 21.1843 44.121 21.1843 42.5769C21.1843 42.154 21.3219 41.7595 21.5535 41.4004C21.1624 41.2258 20.8486 41.0228 20.6136 40.8046C19.9742 41.4574 19.5898 42.2513 19.5898 43.1157C19.5898 45.3059 22.0117 47.0783 25.0076 47.0783C28.0051 47.0783 30.427 45.3042 30.427 43.1157C30.427 42.2513 30.041 41.4574 29.4015 40.8046C29.1615 41.0228 28.8493 41.2292 28.4599 41.4004Z"
        fill="white" />
</svg>
