<svg fill="none" height="50" viewBox="0 0 50 50" width="50" xmlns="http://www.w3.org/2000/svg">
    <path
        d="M50 7.47287H13.125L12.0697 1.33496H2.72645C1.2183 1.33496 0 2.55552 0 4.06254V6.78899H7.47509L12.2849 34.7657C12.3913 35.3816 12.9835 35.8809 13.6096 35.8809H45.9092C47.4173 35.8809 48.6379 34.6615 48.6379 33.1511V30.4269H17.072L16.4074 26.5614H41.3644C44.3761 26.5614 47.2203 24.152 47.7174 21.1832L50 7.47287Z"
        fill="white" />
    <path
        d="M22.0448 48.6662C24.6493 48.6662 26.7607 46.5549 26.7607 43.9504C26.7607 41.346 24.6493 39.2346 22.0448 39.2346C19.4404 39.2346 17.329 41.346 17.329 43.9504C17.329 46.5549 19.4404 48.6662 22.0448 48.6662Z"
        fill="white" />
    <path
        d="M33.6979 43.9494C33.6979 46.5524 35.8073 48.664 38.4104 48.664C41.0157 48.664 43.1296 46.5524 43.1296 43.9494C43.1296 41.3463 41.0157 39.2324 38.4104 39.2324C35.8073 39.2324 33.6979 41.3475 33.6979 43.9494Z"
        fill="white" />
</svg>
