<svg fill="none" height="17" viewBox="0 0 16 17" width="16" xmlns="http://www.w3.org/2000/svg">
    <path
        d="M3.30999 3.89732L5.67399 12.1707L7.70065 8.11732L11.4587 6.61399L3.30999 3.89732ZM1.93265 2.03332L14.47 6.21199C14.5349 6.2335 14.5916 6.27444 14.6324 6.32926C14.6733 6.38408 14.6963 6.45013 14.6983 6.51846C14.7003 6.58679 14.6813 6.6541 14.6438 6.71125C14.6063 6.76841 14.5521 6.81265 14.4887 6.83799L8.66665 9.16666L5.71665 15.0667C5.68663 15.1267 5.63917 15.1763 5.58047 15.209C5.52177 15.2416 5.45459 15.2558 5.38771 15.2496C5.32084 15.2434 5.25739 15.2171 5.20569 15.1743C5.154 15.1314 5.11645 15.0739 5.09799 15.0093L1.50665 2.44066C1.49002 2.38227 1.48965 2.32044 1.50558 2.26186C1.52151 2.20327 1.55314 2.15015 1.59705 2.10822C1.64097 2.0663 1.6955 2.03716 1.75476 2.02396C1.81402 2.01076 1.87576 2.014 1.93332 2.03332H1.93265Z"
        fill="#174425" />
</svg>
