<svg fill="none" height="17" viewBox="0 0 16 17" width="16" xmlns="http://www.w3.org/2000/svg">
    <path
        d="M11.3333 2.50002H13.9999C14.1767 2.50002 14.3463 2.57026 14.4713 2.69528C14.5963 2.82031 14.6666 2.98988 14.6666 3.16669V13.8334C14.6666 14.0102 14.5963 14.1797 14.4713 14.3048C14.3463 14.4298 14.1767 14.5 13.9999 14.5H1.99992C1.82311 14.5 1.65354 14.4298 1.52851 14.3048C1.40349 14.1797 1.33325 14.0102 1.33325 13.8334V3.16669C1.33325 2.98988 1.40349 2.82031 1.52851 2.69528C1.65354 2.57026 1.82311 2.50002 1.99992 2.50002H4.66659V1.16669H5.99992V2.50002H9.99992V1.16669H11.3333V2.50002ZM2.66659 6.50002V13.1667H13.3333V6.50002H2.66659ZM3.99992 9.16669H7.33325V11.8334H3.99992V9.16669Z"
        fill="#174425" />
</svg>
